<svg xmlns="http://www.w3.org/2000/svg" viewBox="0 0 90 90"><defs><style>.cls-1{fill:#fff;}.cls-2{fill:#c34c4c;}.cls-3{fill:#424548;}.cls-4{fill:#5c5f63;}.cls-5{fill:#333538;}.cls-6{fill:#ccd4de;}.cls-7{fill:#929596;}.cls-8{fill:#f3d64c;}</style></defs><g id="Layer_4" data-name="Layer 4"><path class="cls-1" d="M71.48,63.45a7.43,7.43,0,0,1-7-4.93l-.8,0-.87.29-.07-.29H23.07a7.5,7.5,0,0,1-6.87,4.59c-.23,0-.47,0-.7,0A7.48,7.48,0,0,1,9,57.77c-.18,0-.52-.09-.94-.19l-.11,0c-3.1-.43-5.18-1-6.36-1.69l-.22-.13-.13-.21A10.24,10.24,0,0,1,.1,49.4l0-.18A39.13,39.13,0,0,1,1.5,45.33c1.22-3.08,17.16-5.66,19.41-5.92,2.62-1,6.12-2.56,9.22-3.9C33.76,34,36.89,32.59,38,32.22a41,41,0,0,1,12.65-1.88,60.59,60.59,0,0,1,15.46,2.17l.57.15A92.39,92.39,0,0,1,75.61,36c1.92.79,3.58,1.48,4.35,1.74a63.85,63.85,0,0,0,6.53,1.4,2.58,2.58,0,0,1,2.13,2.6l-.09,4.49A5.77,5.77,0,0,1,90,50.37a6.7,6.7,0,0,1-3.24,6l-.13.07-7,1.17h-.15l-.76.18a7.47,7.47,0,0,1-6.21,5.6A7.13,7.13,0,0,1,71.48,63.45Z"/><path class="cls-1" d="M87.54,46.66h0l.08-4.1h0l0-.81a1.6,1.6,0,0,0-1.32-1.61,62.88,62.88,0,0,1-6.67-1.45c-2.12-.7-10.32-4.37-13.17-5.08s-15.68-4.49-28.14-.46c-2.11.68-11.61,5-17.19,7.22-1.63,0-17.84,3-18.74,5.32a36.77,36.77,0,0,0-1.37,4A9.43,9.43,0,0,0,2.13,55a19,19,0,0,0,6.18,1.59h0c.58.13,1,.19,1,.19l.51,0a6.48,6.48,0,0,0,12.79-.25l1.28,1H63.51a2.87,2.87,0,0,1,0-.31h0a2.87,2.87,0,0,0,0,.31L65.1,57a6.48,6.48,0,0,0,12.81-.19h.51s.39-.07.94-.22h.17l6.79-1.14A5.78,5.78,0,0,0,89,50.35,4.57,4.57,0,0,0,87.54,46.66Zm-44-12.53c-.8.14-1.63.31-2.47.52a37.92,37.92,0,0,1,4.1-.78C44.63,33.94,44.09,34,43.52,34.13Zm-3.09,7.15,2.25,0,5.28,0-8.53.08Zm4.91-7.44,1.06-.13Zm1.29-.15.74-.07Zm-7,1.35c-.42.12-.83.25-1.24.4s-1,.37-1.5.58A25.61,25.61,0,0,1,39.63,35ZM41,34.67,39.76,35ZM17.19,47.37a8.88,8.88,0,0,1,1.64.37A10.34,10.34,0,0,0,17.19,47.37Zm16.65-9.71a13.33,13.33,0,0,0-1.25,1A13.33,13.33,0,0,1,33.84,37.66Zm2.89-1.57c-.44.19-.88.4-1.31.63C35.85,36.49,36.29,36.28,36.73,36.09Zm-1.51.73a14.25,14.25,0,0,0-1.25.75A14.25,14.25,0,0,1,35.22,36.82Zm-1.65,4.53Zm14.79-.15,1.74-6.55L48.36,41.2Zm2.06-7.74h0Zm2.47,0,1.56.05Zm2,.07,1,.06Zm6.71.94c.83.2,1.43.39,1.8.51ZM57.31,41h1.13l-1.85,0Zm8.39-2.53h0L65,40.87h0ZM72.57,41h0a2.07,2.07,0,0,0-.12-1.18A2.07,2.07,0,0,1,72.57,41Zm-.32-1.58a1.71,1.71,0,0,0-.21-.26A1.71,1.71,0,0,1,72.25,39.39Zm-7.09-3.73L67,38.28l-1.83-2.62ZM64,35.55l-.21-.36h0ZM63.37,35l.29.1Zm.32.11.07,0Zm-4.25-1.07-.07,0ZM58.69,34l-.24,0Zm-1-.14-.19,0Zm-1-.11-.27,0ZM51.49,41h0Z"/><path class="cls-2" d="M87.54,46.66l.1-4.91a1.6,1.6,0,0,0-1.32-1.61,62.88,62.88,0,0,1-6.67-1.45c-2.12-.7-10.32-4.37-13.17-5.08s-15.68-4.49-28.14-.46c-2.11.68-11.61,5-17.19,7.22-1.63,0-17.84,3-18.74,5.32a36.77,36.77,0,0,0-1.37,4A9.43,9.43,0,0,0,2.13,55a19.23,19.23,0,0,0,6.26,1.6c0-.17-.05-.33-.08-.5a8.79,8.79,0,0,1,0-1,8,8,0,1,1,15.94.32c0,.23,0,.45,0,.67a7.4,7.4,0,0,1-.29,1.43H63.51a2.87,2.87,0,0,1,0-.31,6.84,6.84,0,0,1-.05-1,8,8,0,1,1,16,.32v.05h.17l6.79-1.14A5.78,5.78,0,0,0,89,50.35,4.57,4.57,0,0,0,87.54,46.66ZM48.36,41.2l-14.79.15c.32-2.21-1-2.73-1-2.73,6-5.22,17.83-5.16,17.83-5.16ZM65,40.87,51.49,41l1.37-7.53a32,32,0,0,1,10.92,1.68l1.92,3.24Zm7.6.1-3.76-.07-3.65-5.24a69.8,69.8,0,0,1,6.36,3.06A2.11,2.11,0,0,1,72.57,41Z"/><path class="cls-3" d="M72.57,41l-3.76-.07-3.65-5.24a69.8,69.8,0,0,1,6.36,3.06A2.11,2.11,0,0,1,72.57,41Z"/><path class="cls-3" d="M56.21,33.67,51.49,41l1.37-7.49C54.07,33.52,55.19,33.58,56.21,33.67Z"/><path class="cls-3" d="M61.48,34.49,57.31,41l-1.52,0,4.36-6.78C60.64,34.3,61.08,34.4,61.48,34.49Z"/><path class="cls-3" d="M65.7,38.43,65,40.87,58.88,41l.71-.05L63.36,35l.42.15Z"/><path class="cls-3" d="M32.59,38.62a17.49,17.49,0,0,1,5.8-3.18l-3.8,5.9h-1C33.89,39.14,32.59,38.62,32.59,38.62Z"/><path class="cls-3" d="M45.2,33.86l-4.77,7.42-1.53,0,4.62-7.17C44.1,34,44.67,33.93,45.2,33.86Z"/><path class="cls-3" d="M50.42,33.46,48.36,41.2l-5.68.06L47.6,33.6h0C49.31,33.46,50.42,33.46,50.42,33.46Z"/><path class="cls-4" d="M43.52,34.13,38.9,41.3l-4.31,0,3.8-5.9A31.19,31.19,0,0,1,43.52,34.13Z"/><path class="cls-4" d="M43.34,34.3a31.45,31.45,0,0,0-5.13,1.31Z"/><path class="cls-4" d="M47.6,33.6l-4.92,7.66-2.25,0,4.77-7.42C46.08,33.74,46.9,33.66,47.6,33.6Z"/><path class="cls-4" d="M60.15,34.21,55.79,41l-4.3,0v0l4.72-7.33A34.88,34.88,0,0,1,60.15,34.21Z"/><polygon class="cls-4" points="63.36 35.03 59.59 40.94 58.88 40.95 58.83 40.95 57.31 40.96 61.48 34.49 63.36 35.03"/><path class="cls-5" d="M24.12,56.49a5.52,5.52,0,0,1-.24,1.06l-1.54-1.2-13,.47s-.41-.06-1-.19A11.58,11.58,0,0,1,8.21,55a7.85,7.85,0,0,1,9-7.59A7.79,7.79,0,0,1,24.12,56.49Z"/><circle class="cls-3" cx="16.19" cy="55.66" r="6.48"/><circle class="cls-6" cx="16.19" cy="55.66" r="4.33"/><circle class="cls-7" cx="16.19" cy="55.66" r="3.53"/><circle class="cls-6" cx="16.19" cy="55.66" r="2.54"/><path class="cls-5" d="M70.15,47.74c5.07-.89,8.6,2.82,9.2,7.16a8.94,8.94,0,0,1,.05,1.71c-.58.16-1,.23-1,.23l-13,.11-1.87.61a5.9,5.9,0,0,1-.09-.72C63.18,53.43,65.08,48.63,70.15,47.74Z"/><circle class="cls-3" cx="71.49" cy="55.99" r="6.48"/><circle class="cls-6" cx="71.49" cy="55.99" r="4.33"/><circle class="cls-7" cx="71.49" cy="55.99" r="3.53"/><circle class="cls-6" cx="71.49" cy="55.99" r="2.54"/><path class="cls-8" d="M2.56,47.26s3-3.33,6.24-3c.79.08,3.14,1.19-.61,3.12a13.18,13.18,0,0,1-5.2.92C1.58,48.28,2.56,47.26,2.56,47.26Z"/><path class="cls-8" d="M87.62,42.56l-.08,4.1c-1.25.13-3.06.16-3.53-.33a3.64,3.64,0,0,1,.08-3.6C84.54,42.3,86.41,42.41,87.62,42.56Z"/></g></svg>