<svg xmlns="http://www.w3.org/2000/svg" viewBox="0 0 90 90"><defs><style>.cls-1{fill:#fff;}.cls-2{fill:#90c0a3;}.cls-3{fill:#a8d4a4;}.cls-4{fill:#d6f3a1;}.cls-5{fill:#c1e3a0;}.cls-6{fill:#80b093;}.cls-7{fill:#f5de81;}.cls-8{fill:#faefb0;}</style></defs><g id="Layer_4" data-name="Layer 4"><path class="cls-1" d="M89,19.66a.61.61,0,0,0-.67-.51H50.82v-.81c0-.19-.19-.33-.43-.33H39.61c-.24,0-.43.14-.43.33v.81H1.65a.61.61,0,0,0-.67.51V55.38H1V67.61a.61.61,0,0,0,.67.51H39.18v.81c0,.19.19.33.43.33H50.39c.24,0,.43-.14.43-.33v-.81H88.35a.61.61,0,0,0,.67-.51V55.38h0Z"/><path class="cls-1" d="M39.5,70.24l-.15,0a1.34,1.34,0,0,1-1.14-1.11H1.65A1.79,1.79,0,0,1,1.08,69,1.51,1.51,0,0,1,0,67.61V19.66a1.5,1.5,0,0,1,1.09-1.4,1.77,1.77,0,0,1,.56-.09H38.21a1.28,1.28,0,0,1,.5-.84,1.42,1.42,0,0,1,.42-.23,1.55,1.55,0,0,1,.48-.07H50.39a1.51,1.51,0,0,1,.48.07,1.41,1.41,0,0,1,.78.64,1.28,1.28,0,0,1,.14.43H88.35A1.56,1.56,0,0,1,90,19.66v48a1.57,1.57,0,0,1-1.65,1.49H51.79a1.21,1.21,0,0,1-.15.44,1.39,1.39,0,0,1-.35.41,1.56,1.56,0,0,1-.9.29Z"/><path class="cls-1" d="M89,31.57V19.66a.61.61,0,0,0-.67-.51H50.82v-.81a.28.28,0,0,0,0-.13.47.47,0,0,0-.23-.18l-.17,0H39.61l-.17,0-.14.07a.33.33,0,0,0-.12.24v.81H1.65a.75.75,0,0,0-.26,0,.53.53,0,0,0-.41.47V55.38H1V67.61a.53.53,0,0,0,.41.47.75.75,0,0,0,.26,0H39.18v.81a.36.36,0,0,0,.34.32H50.39a.52.52,0,0,0,.31-.09.48.48,0,0,0,.09-.11.28.28,0,0,0,0-.13v-.81H88.35a.61.61,0,0,0,.67-.51V55.38h0Z"/><path class="cls-2" d="M46.65,54.72l4.17,13.4H88.35a.61.61,0,0,0,.67-.51V55.38C89,55.66,46.65,54.72,46.65,54.72Z"/><path class="cls-2" d="M41.79,54.22S1,55.66,1,55.38V67.61a.61.61,0,0,0,.67.51H39.18Z"/><path class="cls-3" d="M1.65,19.15a.61.61,0,0,0-.67.51V55.38a.61.61,0,0,0,.67.51H39.18l4.67-36.74Z"/><path class="cls-3" d="M88.35,19.15H50.82L46.09,55.89H88.35a.61.61,0,0,0,.67-.51V19.66a.61.61,0,0,0-.67-.51Z"/><path class="cls-4" d="M42.35,23.23H14.15a.35.35,0,0,0-.37.26c-.17,3-3.27,5.35-7.14,5.48a.32.32,0,0,0-.34.28V45.79a.32.32,0,0,0,.34.28c3.87.13,7,2.51,7.14,5.48a.35.35,0,0,0,.37.26h25Z"/><path class="cls-4" d="M83.36,29c-3.87-.13-7-2.51-7.14-5.48a.35.35,0,0,0-.37-.26H47.68l3.14,28.58h25a.35.35,0,0,0,.37-.26c.17-3,3.27-5.35,7.14-5.48a.32.32,0,0,0,.34-.28V29.25a.32.32,0,0,0-.34-.28Z"/><path class="cls-5" d="M12.9,49.09a4.71,4.71,0,0,1,.88,2.46.35.35,0,0,0,.37.26H41.79l-2.61-2.72Z"/><path class="cls-5" d="M83.36,29c-3.87-.13-7-2.51-7.14-5.48a.35.35,0,0,0-.37-.26H70a7.93,7.93,0,0,0,6.26,3c.19,0,.35.14.35.28V39.32c0,2-1.45,3.79-3.7,4.77a6.83,6.83,0,0,0-2.82,2.17,7.76,7.76,0,0,1-6.22,2.83H48.61l2.21,2.72h25a.35.35,0,0,0,.37-.26c.17-3,3.27-5.35,7.14-5.48a.32.32,0,0,0,.34-.28V29.25a.32.32,0,0,0-.34-.28Z"/><path class="cls-3" d="M22,39.28H14.61a1.24,1.24,0,0,1-1.36-1.05V36.81a1.24,1.24,0,0,1,1.36-1.05H22a1.24,1.24,0,0,1,1.36,1.05v1.42A1.24,1.24,0,0,1,22,39.28Z"/><path class="cls-3" d="M68,39.28h7.38a1.24,1.24,0,0,0,1.36-1.05V36.81a1.24,1.24,0,0,0-1.36-1.05H68a1.24,1.24,0,0,0-1.36,1.05v1.42A1.24,1.24,0,0,0,68,39.28Z"/><path class="cls-3" d="M39.18,27.59c-4.94,1.7-8.37,5.51-8.37,9.93s3.43,8.23,8.37,9.93l2.61-12Z"/><path class="cls-3" d="M50.82,27.59l-2.21,6.62,2.21,13.24c4.94-1.7,8.37-5.51,8.37-9.93s-3.43-8.23-8.37-9.93Z"/><path class="cls-6" d="M39.36,61H5.58a1.05,1.05,0,1,1,0-2H39.36a1.05,1.05,0,1,1,0,2Z"/><path class="cls-6" d="M84.42,61H50.64a1.05,1.05,0,1,1,0-2H84.42a1.05,1.05,0,1,1,0,2Z"/><path class="cls-6" d="M39.36,65.06H5.58a1.05,1.05,0,1,1,0-2H39.36a1.05,1.05,0,1,1,0,2Z"/><path class="cls-6" d="M84.42,65.06H50.64a1.05,1.05,0,1,1,0-2H84.42a1.05,1.05,0,1,1,0,2Z"/><path class="cls-7" d="M50.82,55.89,45,52.12l-5.82,3.77v13c0,.19.19.33.43.33H50.39c.24,0,.43-.14.43-.33v-13Z"/><path class="cls-8" d="M50.82,55.89H39.18V18.34c0-.19.19-.33.43-.33H50.39c.24,0,.43.14.43.33Z"/></g></svg>