<svg xmlns="http://www.w3.org/2000/svg" viewBox="0 0 90 90"><defs><style>.cls-1{fill:#fff;}.cls-2{fill:#0098d4;}.cls-3{fill:#8bc3d6;}.cls-4{fill:#00ace6;}.cls-5{fill:#9edcf7;}</style></defs><g id="Layer_4" data-name="Layer 4"><path class="cls-1" d="M37.59,90A13.49,13.49,0,0,1,24.18,74.87l-5.51,1.59h0l-1.05.3A13.49,13.49,0,0,1,8.51,51.4L9.4,51l20.48-8.15a.56.56,0,0,0,.36-.43L36.9,2.09A2.47,2.47,0,0,1,39.36,0a2.56,2.56,0,0,1,.39,0l24,3.33a2.48,2.48,0,0,1,2.11,3L65,12.77l22.88,3.17a2.49,2.49,0,0,1,2.11,3l-1.4,9.77-.13,1L88,32.89,83.51,64c-.15,1.18-.29,2.2-.44,3.13l0,.28a17.82,17.82,0,0,1-.79,3.16c-.06.2-.14.4-.21.6l-.21.51-.19.46-.08.16c-.13.27-.22.46-.32.65l-.36.65-.22.4c-.22.35-.44.7-.68,1l-.06.08c-.26.36-.49.67-.73,1l-.14.17c-.26.3-.53.6-.81.89a17.65,17.65,0,0,1-9.62,5.18l-2,.41L64.87,83l-.63.12c-2.94.65-5.85,1.38-8.66,2.18L42.74,89h0l-1.05.3A13.46,13.46,0,0,1,37.59,90Z"/><path class="cls-1" d="M88.74,17.53a1.5,1.5,0,0,0-1-.62l-23.85-3.3,1.07-7.48a1.51,1.51,0,0,0-1.29-1.8h0L39.59,1a1.45,1.45,0,0,0-1.12.27,1.5,1.5,0,0,0-.6,1L31.21,42.58a1.53,1.53,0,0,1-1,1.22L9.77,52h0l-.89.36a12.51,12.51,0,0,0,8.48,23.52l.34-.1h0l7.73-2.23a12.4,12.4,0,0,0,.37,7.24,12.54,12.54,0,0,0,15.63,7.68l.34-.1h0L55.31,84.4q4.65-1.32,9.37-2.34v0c1.23-.24,2.5-.52,3.75-.75a16.89,16.89,0,0,0,9.06-4.86l0,0c.26-.27.52-.56.77-.85l.12-.15c.23-.28.45-.56.66-.86l.09-.12c.22-.32.44-.64.64-1L80,73.1l.34-.62.27-.54a2.4,2.4,0,0,1,.11-.23l.18-.43c.07-.16.13-.32.19-.48s.14-.38.21-.56a17.43,17.43,0,0,0,.74-3l0-.3c.16-.93.29-1.94.44-3.1L87,32.75l.46-3.21h0L89,18.71A1.46,1.46,0,0,0,88.74,17.53Z"/><path id="Shape" class="cls-2" d="M87.7,16.91l-24-3.33a1.5,1.5,0,0,0-1.72,1.25L55.28,55.16a1.51,1.51,0,0,1-1,1.22L33,64.89a12.38,12.38,0,0,0-7.3,14.88,12.59,12.59,0,0,0,15.82,8.62l13.84-4q6.49-1.84,13.14-3.1a16.83,16.83,0,0,0,13.61-14L89,18.71a1.46,1.46,0,0,0-.25-1.18,1.5,1.5,0,0,0-1-.62Z"/><path id="Shape-2" data-name="Shape" class="cls-3" d="M86.54,35.79,59.17,31.71l1-6.23,27.25,4.06Z"/><path id="Shape-3" data-name="Shape" class="cls-3" d="M80.74,71.71a16.85,16.85,0,0,1-12.3,9.62c-1.25.23-2.52.51-3.75.75a18.61,18.61,0,0,1,.13-9.77c2.55-7.69,10.51-10.86,18.07-11C82.18,66.3,82.08,68.75,80.74,71.71Z"/><path id="Shape-4" data-name="Shape" class="cls-3" d="M41.77,88.31l-.34.1A12.51,12.51,0,0,1,33,64.89l.89-.36a42.37,42.37,0,0,1,7.93,23.78Z"/><path id="Shape-5" data-name="Shape" class="cls-4" d="M63.63,4.33,39.59,1a1.45,1.45,0,0,0-1.12.27,1.5,1.5,0,0,0-.6,1L31.21,42.58a1.53,1.53,0,0,1-1,1.22L8.88,52.31a12.38,12.38,0,0,0-7.3,14.88A12.59,12.59,0,0,0,17.4,75.81l13.84-4q6.5-1.86,13.14-3.1A16.83,16.83,0,0,0,58,54.67L64.92,6.13a1.51,1.51,0,0,0-1.29-1.8Z"/><path id="Shape-6" data-name="Shape" class="cls-5" d="M62.47,23.21,35.1,19.13l1-6.23L63.38,17Z"/><path id="Shape-7" data-name="Shape" class="cls-5" d="M56.67,59.13a16.87,16.87,0,0,1-12.3,9.62c-1.25.23-2.52.51-3.75.75a18.65,18.65,0,0,1,.13-9.78c2.55-7.69,10.51-10.85,18.07-11C58.11,53.72,58,56.17,56.67,59.13Z"/><path id="Shape-8" data-name="Shape" class="cls-5" d="M17.7,75.73l-.34.1A12.51,12.51,0,0,1,8.88,52.31L9.77,52A42.37,42.37,0,0,1,17.7,75.73Z"/><path id="Shape-9" data-name="Shape" class="cls-4" d="M63.63,4.33,39.59,1a1.45,1.45,0,0,0-1.12.27,1.5,1.5,0,0,0-.6,1L31.21,42.58a1.53,1.53,0,0,1-1,1.22L8.88,52.31a12.38,12.38,0,0,0-7.3,14.88A12.59,12.59,0,0,0,17.4,75.81l13.84-4q6.5-1.86,13.14-3.1A16.83,16.83,0,0,0,58,54.67L64.92,6.13a1.51,1.51,0,0,0-1.29-1.8Z"/><path id="Shape-10" data-name="Shape" class="cls-5" d="M62.47,23.21,35.1,19.13l1-6.23L63.38,17Z"/><path id="Shape-11" data-name="Shape" class="cls-5" d="M56.67,59.13a16.87,16.87,0,0,1-12.3,9.62c-1.25.23-2.52.51-3.75.75a18.65,18.65,0,0,1,.13-9.78c2.55-7.69,10.51-10.85,18.07-11C58.11,53.72,58,56.17,56.67,59.13Z"/><path id="Shape-12" data-name="Shape" class="cls-5" d="M17.7,75.73l-.34.1A12.51,12.51,0,0,1,8.88,52.31L9.77,52A42.37,42.37,0,0,1,17.7,75.73Z"/></g></svg>