<svg xmlns="http://www.w3.org/2000/svg" viewBox="0 0 90 90"><defs><style>.cls-1{fill:#ededed;}.cls-2{fill:#545555;}.cls-3{fill:#464645;}.cls-4{fill:#b3d7f2;}.cls-5{fill:#95c7e5;}.cls-6{fill:#666;}.cls-7{fill:#86b3e4;}.cls-8{fill:#71a2d4;}.cls-9{fill:#ecb52e;}.cls-10{fill:#d74b48;}.cls-11{fill:#cca171;}.cls-12{fill:#cacaca;}.cls-13{fill:#eed499;}.cls-14{fill:#878787;}.cls-15{fill:#9bb436;}</style></defs><g id="Layer_4" data-name="Layer 4"><path class="cls-1" d="M28.89,90a6.24,6.24,0,0,1-2.13-.37,6.5,6.5,0,0,1-2.42-1.52,6.64,6.64,0,0,1-1.53-2.43,6.49,6.49,0,0,1-.37-2.13V6.45a6.35,6.35,0,0,1,.38-2.14A6.42,6.42,0,0,1,26.76.37,6.28,6.28,0,0,1,28.89,0H63.08a6.45,6.45,0,0,1,6.45,6.45v77.1A6.45,6.45,0,0,1,63.08,90Z"/><path class="cls-1" d="M63.08,1H28.89a5.36,5.36,0,0,0-1.8.31A5.48,5.48,0,0,0,25,2.59a5.55,5.55,0,0,0-1.61,3.86v77.1a5.51,5.51,0,0,0,3.67,5.16,5.36,5.36,0,0,0,1.8.31H63.08a5.48,5.48,0,0,0,5.47-5.47V6.45A5.48,5.48,0,0,0,63.08,1Z"/><path class="cls-2" d="M63.08,89H28.89a5.48,5.48,0,0,1-5.47-5.47V6.45A5.48,5.48,0,0,1,28.89,1H63.08a5.48,5.48,0,0,1,5.47,5.47v77.1A5.48,5.48,0,0,1,63.08,89Z"/><path class="cls-3" d="M27.39,83.55V6.45A5.48,5.48,0,0,1,32.86,1h-4a5.48,5.48,0,0,0-5.47,5.47v77.1A5.48,5.48,0,0,0,28.89,89h4A5.48,5.48,0,0,1,27.39,83.55Z"/><path class="cls-4" d="M63.66,75.88H28.31a.93.93,0,0,1-.92-.93V13.51a.93.93,0,0,1,.92-.93H63.66a.93.93,0,0,1,.93.93V75A.93.93,0,0,1,63.66,75.88Z"/><path class="cls-5" d="M31.15,75V13.51a.93.93,0,0,1,.93-.93H28.31a.93.93,0,0,0-.92.93V75a.93.93,0,0,0,.92.93h3.77A.93.93,0,0,1,31.15,75Z"/><path class="cls-6" d="M46.08,86.72a4.28,4.28,0,1,1,4.27-4.27A4.28,4.28,0,0,1,46.08,86.72Zm0-7.7a3.43,3.43,0,1,0,3.43,3.43A3.44,3.44,0,0,0,46.08,79Z"/><path class="cls-6" d="M52.06,9.72H43.7a1.33,1.33,0,1,1,0-2.66h8.36a1.33,1.33,0,0,1,0,2.66Z"/><path class="cls-6" d="M37.5,8.65a1.33,1.33,0,1,1,1.56,1A1.33,1.33,0,0,1,37.5,8.65Z"/><path class="cls-6" d="M46.16,5a1.33,1.33,0,1,1,2,.85,1.38,1.38,0,0,1-.48.19A1.31,1.31,0,0,1,46.16,5Z"/><path class="cls-7" d="M27.39,13.51v4.64h37.2V13.51a.93.93,0,0,0-.93-.93H28.31A.93.93,0,0,0,27.39,13.51Z"/><path class="cls-8" d="M31.15,13.51a.93.93,0,0,1,.93-.93H28.31a.92.92,0,0,0-.92.93v4.64h3.76V13.51Z"/><path class="cls-7" d="M33.52,52.1h0a2.38,2.38,0,0,1-2.37-2.37h0a2.38,2.38,0,0,1,2.37-2.38h0a2.38,2.38,0,0,1,2.37,2.38h0A2.38,2.38,0,0,1,33.52,52.1Z"/><path class="cls-9" d="M41.89,52.1h0a2.38,2.38,0,0,1-2.37-2.37h0a2.38,2.38,0,0,1,2.37-2.38h0a2.38,2.38,0,0,1,2.37,2.38h0A2.38,2.38,0,0,1,41.89,52.1Z"/><path class="cls-7" d="M33.52,26.52h0a2.38,2.38,0,0,1-2.37-2.37h0a2.38,2.38,0,0,1,2.37-2.37h0a2.38,2.38,0,0,1,2.37,2.37h0A2.38,2.38,0,0,1,33.52,26.52Z"/><path class="cls-1" d="M41.89,26.52h0a2.38,2.38,0,0,1-2.37-2.37h0a2.38,2.38,0,0,1,2.37-2.37h0a2.38,2.38,0,0,1,2.37,2.37h0A2.38,2.38,0,0,1,41.89,26.52Z"/><path class="cls-10" d="M50.26,26.52h0a2.38,2.38,0,0,1-2.37-2.37h0a2.38,2.38,0,0,1,2.37-2.37h0a2.37,2.37,0,0,1,2.37,2.37h0A2.38,2.38,0,0,1,50.26,26.52Z"/><path class="cls-1" d="M58.63,26.52h0a2.38,2.38,0,0,1-2.37-2.37h0a2.38,2.38,0,0,1,2.37-2.37h0A2.37,2.37,0,0,1,61,24.15h0A2.38,2.38,0,0,1,58.63,26.52Z"/><path class="cls-11" d="M33.52,35h0a2.38,2.38,0,0,1-2.37-2.37h0a2.38,2.38,0,0,1,2.37-2.37h0a2.38,2.38,0,0,1,2.37,2.37h0A2.38,2.38,0,0,1,33.52,35Z"/><path class="cls-12" d="M41.89,35h0a2.38,2.38,0,0,1-2.37-2.37h0a2.38,2.38,0,0,1,2.37-2.37h0a2.38,2.38,0,0,1,2.37,2.37h0A2.38,2.38,0,0,1,41.89,35Z"/><path class="cls-7" d="M50.26,35h0a2.38,2.38,0,0,1-2.37-2.37h0a2.38,2.38,0,0,1,2.37-2.37h0a2.38,2.38,0,0,1,2.37,2.37h0A2.38,2.38,0,0,1,50.26,35Z"/><path class="cls-9" d="M58.63,35h0a2.38,2.38,0,0,1-2.37-2.37h0a2.38,2.38,0,0,1,2.37-2.37h0A2.38,2.38,0,0,1,61,32.6h0A2.38,2.38,0,0,1,58.63,35Z"/><path class="cls-13" d="M33.52,43.53h0a2.38,2.38,0,0,1-2.37-2.37h0a2.38,2.38,0,0,1,2.37-2.37h0a2.38,2.38,0,0,1,2.37,2.37h0A2.38,2.38,0,0,1,33.52,43.53Z"/><path class="cls-9" d="M41.89,43.53h0a2.38,2.38,0,0,1-2.37-2.37h0a2.38,2.38,0,0,1,2.37-2.37h0a2.38,2.38,0,0,1,2.37,2.37h0A2.38,2.38,0,0,1,41.89,43.53Z"/><path class="cls-1" d="M50.26,43.53h0a2.38,2.38,0,0,1-2.37-2.37h0a2.38,2.38,0,0,1,2.37-2.37h0a2.38,2.38,0,0,1,2.37,2.37h0A2.37,2.37,0,0,1,50.26,43.53Z"/><path class="cls-14" d="M58.63,43.53h0a2.38,2.38,0,0,1-2.37-2.37h0a2.38,2.38,0,0,1,2.37-2.37h0A2.38,2.38,0,0,1,61,41.16h0A2.37,2.37,0,0,1,58.63,43.53Z"/><path class="cls-9" d="M33.52,60.66h0a2.38,2.38,0,0,1-2.37-2.37h0a2.38,2.38,0,0,1,2.37-2.37h0a2.38,2.38,0,0,1,2.37,2.37h0A2.38,2.38,0,0,1,33.52,60.66Z"/><path class="cls-10" d="M41.89,60.66h0a2.38,2.38,0,0,1-2.37-2.37h0a2.38,2.38,0,0,1,2.37-2.37h0a2.38,2.38,0,0,1,2.37,2.37h0A2.38,2.38,0,0,1,41.89,60.66Z"/><path class="cls-14" d="M50.26,60.66h0a2.38,2.38,0,0,1-2.37-2.37h0a2.38,2.38,0,0,1,2.37-2.37h0a2.37,2.37,0,0,1,2.37,2.37h0A2.38,2.38,0,0,1,50.26,60.66Z"/><path class="cls-15" d="M50.26,52.1h0a2.38,2.38,0,0,1-2.37-2.37h0a2.38,2.38,0,0,1,2.37-2.38h0a2.38,2.38,0,0,1,2.37,2.38h0A2.38,2.38,0,0,1,50.26,52.1Z"/><path class="cls-7" d="M58.63,52.1h0a2.38,2.38,0,0,1-2.37-2.37h0a2.38,2.38,0,0,1,2.37-2.38h0A2.38,2.38,0,0,1,61,49.73h0A2.38,2.38,0,0,1,58.63,52.1Z"/><path class="cls-15" d="M35.3,72.28H31.74a.59.59,0,0,1-.59-.59V68.13a.6.6,0,0,1,.59-.59H35.3a.6.6,0,0,1,.59.59v3.56A.59.59,0,0,1,35.3,72.28Z"/><path class="cls-7" d="M43.67,72.28H40.11a.59.59,0,0,1-.59-.59V68.13a.6.6,0,0,1,.59-.59h3.56a.6.6,0,0,1,.59.59v3.56A.59.59,0,0,1,43.67,72.28Z"/><path class="cls-15" d="M52,72.28H48.48a.59.59,0,0,1-.59-.59V68.13a.6.6,0,0,1,.59-.59H52a.6.6,0,0,1,.59.59v3.56A.59.59,0,0,1,52,72.28Z"/><path class="cls-1" d="M60.41,72.28H56.85a.59.59,0,0,1-.59-.59V68.13a.6.6,0,0,1,.59-.59h3.56a.59.59,0,0,1,.59.59v3.56A.58.58,0,0,1,60.41,72.28Z"/></g></svg>