<svg xmlns="http://www.w3.org/2000/svg" viewBox="0 0 90 90"><defs><style>.cls-1{fill:#fff;}.cls-2{fill:#afafaf;}.cls-3{fill:#e39b6c;}.cls-4{fill:#d78d64;}.cls-5{fill:#cac7ca;}.cls-6{fill:#ddd9dd;}.cls-7{fill:#5c4f5c;}.cls-8{fill:#736571;}.cls-9{fill:#dcd8dc;}.cls-10{fill:#cfccce;}</style></defs><g id="Layer_4" data-name="Layer 4"><path class="cls-1" d="M45.54,69.67A24.05,24.05,0,0,1,28.3,62.48l-10.54,0a4.59,4.59,0,0,1-4.59-4.57V56.52l-8.39,0A4.77,4.77,0,0,1,.23,53.15,5.07,5.07,0,0,1,0,51.8L0,39.09a4.76,4.76,0,0,1,4.74-4.76h1l7.44,0v-.8a4.59,4.59,0,0,1,4.57-4.59h10a24.78,24.78,0,0,1,2.08-2,2.53,2.53,0,0,1-.27-1.56,2.5,2.5,0,0,1,1-1.68A2.53,2.53,0,0,1,32,23.13a2.56,2.56,0,0,1,1.92.87,24,24,0,0,1,8.15-2.71v-.36a3.55,3.55,0,1,1,7.09,0v.4a24.18,24.18,0,0,1,7.72,2.54,2.57,2.57,0,0,1,1.85-.79,2.48,2.48,0,0,1,1.53.52,2.53,2.53,0,0,1,1,1.68,2.49,2.49,0,0,1-.18,1.38l.69.59A24.9,24.9,0,0,1,63.54,29h8.18a4.59,4.59,0,0,1,4.59,4.57V35l8.9,0A4.75,4.75,0,0,1,90,39.71l0,12.71a4.77,4.77,0,0,1-4.74,4.76h-8.9V58a4.57,4.57,0,0,1-4.57,4.59l-9.13,0a24.15,24.15,0,0,1-17.07,7.06ZM68.36,37a23.92,23.92,0,0,1,1.49,8.34,24.28,24.28,0,0,1-2.1,10h3.56a3.15,3.15,0,0,1-.24-1.18l0-15.93A3.06,3.06,0,0,1,71.27,37Zm-48.71-.7a3.1,3.1,0,0,1,.23,1.18l0,15.92a3.26,3.26,0,0,1-.23,1.18H23a24.38,24.38,0,0,1,0-18.29Z"/><path class="cls-1" d="M89,39.71A3.78,3.78,0,0,0,85.22,36l-9.88,0V33.58A3.58,3.58,0,0,0,71.73,30H63.1a25.4,25.4,0,0,0-2-2c-.43-.38-.89-.74-1.34-1.1l.21-.29a1.58,1.58,0,1,0-2.53-1.89l-.32.43a23.23,23.23,0,0,0-9-2.94V20.92a2.57,2.57,0,1,0-5.13,0v1.22a23.31,23.31,0,0,0-9.38,3.12l-.41-.53a1.58,1.58,0,0,0-2.52,1.9l.32.43a23.83,23.83,0,0,0-3,2.8l-9.43,0H17.7a3.61,3.61,0,0,0-3.6,3.61v1.78l-8.42,0h-1A3.77,3.77,0,0,0,1,39.09L1,51.8a3.8,3.8,0,0,0,.17,1.07,3.76,3.76,0,0,0,3.61,2.69l9.37,0v2.39a3.61,3.61,0,0,0,3.61,3.6l11,0a23.3,23.3,0,0,0,33.54.13l9.54,0A3.59,3.59,0,0,0,75.38,58V56.22l-9.2,0A23.36,23.36,0,0,0,66.91,36l7.55,0h-.28A2.17,2.17,0,0,0,72,38.14l0,15.92a2.16,2.16,0,0,0,2.17,2.16l11,0a3.77,3.77,0,0,0,3.6-2.7A3.49,3.49,0,0,0,89,52.42ZM15.86,55.53h.92a2.17,2.17,0,0,0,2.16-2.17l0-15.92a2.17,2.17,0,0,0-2.13-2.15l7.7,0a23.37,23.37,0,0,0,.05,20.24l-8.67,0Zm-.76,0Zm63.32-2h0l9.82,0Z"/><path class="cls-2" d="M17.7,29.9l10.38,0a23.38,23.38,0,0,0-3.6,5.39l-10.37,0V33.51A3.61,3.61,0,0,1,17.7,29.9Z"/><path class="cls-2" d="M14.15,55.54l10.38,0A23.67,23.67,0,0,0,28.24,61c.15.17.31.33.47.49l-10.95,0a3.61,3.61,0,0,1-3.61-3.6Z"/><path class="cls-3" d="M4.74,35.31l10.23,0,0,15.45a2.17,2.17,0,0,1-2.16,2.17l-11,0a3.18,3.18,0,0,1-.62-.06A3.8,3.8,0,0,1,1,51.8L1,39.09A3.77,3.77,0,0,1,4.74,35.31Z"/><path class="cls-4" d="M15,35.29h.81A2.16,2.16,0,0,1,18,37.45l0,15.92a2.17,2.17,0,0,1-2.16,2.17l-11,0a3.76,3.76,0,0,1-3.61-2.69,3.18,3.18,0,0,0,.62.06l9.82,0A3.39,3.39,0,0,0,15,49.51Z"/><path class="cls-2" d="M71.79,61.61l-9.87,0a23.38,23.38,0,0,0,3.6-5.39l9.86,0V58A3.59,3.59,0,0,1,71.79,61.61Z"/><path class="cls-2" d="M75.34,36l-9.87,0a23.67,23.67,0,0,0-3.71-5.49c-.15-.17-.31-.33-.47-.49l10.44,0a3.58,3.58,0,0,1,3.6,3.59Z"/><path class="cls-3" d="M85.22,36,75,36l0,15.45a2.17,2.17,0,0,0,2.17,2.16l11,0a3.18,3.18,0,0,0,.62-.06A3.49,3.49,0,0,0,89,52.42l0-12.71A3.78,3.78,0,0,0,85.22,36Z"/><path class="cls-4" d="M75,36h-.81A2.17,2.17,0,0,0,72,38.14l0,15.92a2.16,2.16,0,0,0,2.17,2.16l11,0a3.77,3.77,0,0,0,3.6-2.7,3.18,3.18,0,0,1-.62.06l-9.82,0A3.41,3.41,0,0,1,75,50.19Z"/><rect class="cls-2" x="30.17" y="24.58" width="4.35" height="3.16" rx="1.58" transform="translate(30.96 67.74) rotate(-127.06)"/><rect class="cls-2" x="30.17" y="24.58" width="4.35" height="3.16" rx="1.58" transform="translate(30.96 67.74) rotate(-127.06)"/><rect class="cls-2" x="56.19" y="24.53" width="4.35" height="3.16" rx="1.58" transform="translate(114.25 -4.96) rotate(126.83)"/><path class="cls-2" d="M43,18.36H45.6a2.56,2.56,0,0,1,2.56,2.56v0a2.56,2.56,0,0,1-2.56,2.56H43a0,0,0,0,1,0,0V18.36A0,0,0,0,1,43,18.36Z" transform="translate(24.77 66.57) rotate(-90.11)"/><path class="cls-5" d="M61.11,28A23.33,23.33,0,1,1,28.71,61.5c-.16-.16-.32-.32-.47-.49l.58.49c.25.22.51.43.77.63l.81.59c.25.18.49.35.75.51l.08.05.81.51a.05.05,0,0,1,0,0l.88.49.72.36.22.11.19.08.58.26.2.09.85.33c.38.14.76.27,1.15.39l.51.16.52.14.61.15.44.1.56.11.51.09.45.07a23.77,23.77,0,0,0,3.4.24A23.33,23.33,0,0,0,61.11,28Z"/><path class="cls-6" d="M45.49,22A23.27,23.27,0,0,1,61.11,28,23.33,23.33,0,0,1,43.87,67a23.77,23.77,0,0,1-3.4-.24L40,66.67l-.51-.09L39,66.47l-.44-.1-.61-.15-.52-.14-.51-.16c-.39-.12-.77-.25-1.15-.39l-.85-.33-.2-.09-.58-.26-.19-.08-.22-.11L33,64.3l-.88-.49a.05.05,0,0,0,0,0l-.81-.51-.08-.05q-.39-.24-.75-.51l-.81-.59c-.26-.21-.52-.41-.77-.63L28.24,61a23.67,23.67,0,0,1-3.71-5.49,23.34,23.34,0,0,1,21-33.5Z"/><circle class="cls-7" cx="45.54" cy="45.35" r="17.05"/><circle class="cls-8" cx="45.54" cy="45.35" r="14.6"/><circle class="cls-9" cx="55.15" cy="45.33" r="4.16"/><circle class="cls-1" cx="55.15" cy="45.33" r="1.71"/><circle class="cls-10" cx="31.19" cy="45.38" r="1.71"/><circle class="cls-10" cx="45.51" cy="30.75" r="1.71"/><circle class="cls-10" cx="45.57" cy="59.96" r="1.71"/><path class="cls-1" d="M46.68,45.32a1,1,0,0,1-1.82.66l-6.22-7.6a1,1,0,1,1,1.59-1.3l6.22,7.59A1,1,0,0,1,46.68,45.32Z"/><path class="cls-1" d="M46.68,45.43a1,1,0,0,0-.38-.79,1,1,0,0,0-1.45.14L38.66,52.4a1,1,0,1,0,1.6,1.3l6.19-7.62A1,1,0,0,0,46.68,45.43Z"/><circle class="cls-9" cx="45.54" cy="45.35" r="1.71"/><path class="cls-2" d="M18.65,29.89l10.39,0a23.44,23.44,0,0,0-3.6,5.4l-10.38,0V33.5A3.6,3.6,0,0,1,18.65,29.89Z"/><path class="cls-2" d="M15.1,55.53l10.39,0A23.15,23.15,0,0,0,29.2,61c.15.17.31.34.47.5l-11,0a3.6,3.6,0,0,1-3.61-3.59Z"/><path class="cls-3" d="M5.69,35.31l10.23,0,0,15.45A2.15,2.15,0,0,1,13.8,52.9l-11,0a3.22,3.22,0,0,1-.63-.05A3.81,3.81,0,0,1,2,51.79l0-12.71A3.76,3.76,0,0,1,5.69,35.31Z"/><path class="cls-4" d="M15.92,35.29h.82a2.18,2.18,0,0,1,2.17,2.16l0,15.92a2.17,2.17,0,0,1-2.16,2.17l-11,0a3.77,3.77,0,0,1-3.61-2.68,3.22,3.22,0,0,0,.63.05l9.81,0A3.39,3.39,0,0,0,16,49.5Z"/><path class="cls-2" d="M71.79,61.61l-9.87,0a23.38,23.38,0,0,0,3.6-5.39l9.86,0V58A3.59,3.59,0,0,1,71.79,61.61Z"/><path class="cls-2" d="M75.34,36l-9.87,0a23.67,23.67,0,0,0-3.71-5.49c-.15-.17-.31-.33-.47-.49l10.44,0a3.58,3.58,0,0,1,3.6,3.59Z"/><path class="cls-3" d="M85.22,36,75,36l0,15.45a2.17,2.17,0,0,0,2.17,2.16l11,0a3.18,3.18,0,0,0,.62-.06A3.49,3.49,0,0,0,89,52.42l0-12.71A3.78,3.78,0,0,0,85.22,36Z"/><path class="cls-4" d="M75,36h-.81A2.17,2.17,0,0,0,72,38.14l0,15.92a2.16,2.16,0,0,0,2.17,2.16l11,0a3.77,3.77,0,0,0,3.6-2.7,3.18,3.18,0,0,1-.62.06l-9.82,0A3.41,3.41,0,0,1,75,50.19Z"/><rect class="cls-2" x="30.17" y="24.58" width="4.35" height="3.16" rx="1.58" transform="translate(30.96 67.74) rotate(-127.06)"/><rect class="cls-2" x="30.17" y="24.58" width="4.35" height="3.16" rx="1.58" transform="translate(30.96 67.74) rotate(-127.06)"/><rect class="cls-2" x="56.19" y="24.53" width="4.35" height="3.16" rx="1.58" transform="translate(114.25 -4.96) rotate(126.83)"/><path class="cls-2" d="M43,18.36H45.6a2.56,2.56,0,0,1,2.56,2.56v0a2.56,2.56,0,0,1-2.56,2.56H43a0,0,0,0,1,0,0V18.36A0,0,0,0,1,43,18.36Z" transform="translate(24.77 66.57) rotate(-90.11)"/><path class="cls-5" d="M61.11,28A23.33,23.33,0,1,1,28.71,61.5c-.16-.16-.32-.32-.47-.49l.58.49c.25.22.51.43.77.63l.81.59c.25.18.49.35.75.51l.08.05.81.51a.05.05,0,0,1,0,0l.88.49.72.36.22.11.19.08.58.26.2.09.85.33c.38.14.76.27,1.15.39l.51.16.52.14.61.15.44.1.56.11.51.09.45.07a23.77,23.77,0,0,0,3.4.24A23.33,23.33,0,0,0,61.11,28Z"/><path class="cls-6" d="M45.49,22A23.27,23.27,0,0,1,61.11,28,23.33,23.33,0,0,1,43.87,67a23.77,23.77,0,0,1-3.4-.24L40,66.67l-.51-.09L39,66.47l-.44-.1-.61-.15-.52-.14-.51-.16c-.39-.12-.77-.25-1.15-.39l-.85-.33-.2-.09-.58-.26-.19-.08-.22-.11L33,64.3l-.88-.49a.05.05,0,0,0,0,0l-.81-.51-.08-.05q-.39-.24-.75-.51l-.81-.59c-.26-.21-.52-.41-.77-.63L28.24,61a23.67,23.67,0,0,1-3.71-5.49,23.34,23.34,0,0,1,21-33.5Z"/><circle class="cls-7" cx="45.54" cy="45.35" r="17.05"/><circle class="cls-8" cx="45.54" cy="45.35" r="14.6"/><circle class="cls-9" cx="55.15" cy="45.33" r="4.16"/><circle class="cls-1" cx="55.15" cy="45.33" r="1.71"/><circle class="cls-10" cx="31.19" cy="45.38" r="1.71"/><circle class="cls-10" cx="45.51" cy="30.75" r="1.71"/><circle class="cls-10" cx="45.57" cy="59.96" r="1.71"/><path class="cls-1" d="M46.68,45.32a1,1,0,0,1-1.82.66l-6.22-7.6a1,1,0,1,1,1.59-1.3l6.22,7.59A1,1,0,0,1,46.68,45.32Z"/><path class="cls-1" d="M46.68,45.43a1,1,0,0,0-.38-.79,1,1,0,0,0-1.45.14L38.66,52.4a1,1,0,1,0,1.6,1.3l6.19-7.62A1,1,0,0,0,46.68,45.43Z"/><circle class="cls-9" cx="45.54" cy="45.35" r="1.71"/></g></svg>